<svg width="151" height="43" viewBox="0 0 151 43" fill="none" xmlns="http://www.w3.org/2000/svg">
<path d="M145.817 33.8488V30.1733L145.467 29.3682V22.7872C145.467 21.6204 145.105 20.7103 144.382 20.0568C143.682 19.4034 142.597 19.0767 141.126 19.0767C140.123 19.0767 139.131 19.2401 138.151 19.5668C137.194 19.8701 136.377 20.2902 135.701 20.827L133.74 17.0114C134.767 16.288 136.004 15.7279 137.451 15.3312C138.898 14.9344 140.368 14.7361 141.861 14.7361C144.732 14.7361 146.96 15.4128 148.547 16.7664C150.134 18.1199 150.928 20.2319 150.928 23.1023V33.8488H145.817ZM140.076 34.1288C138.606 34.1288 137.346 33.8838 136.296 33.3937C135.245 32.8803 134.44 32.1919 133.88 31.3284C133.32 30.465 133.04 29.4965 133.04 28.423C133.04 27.3029 133.309 26.3227 133.845 25.4826C134.405 24.6425 135.28 23.9891 136.471 23.5223C137.661 23.0323 139.213 22.7872 141.126 22.7872H146.132V25.9727H141.721C140.438 25.9727 139.551 26.1827 139.061 26.6028C138.594 27.0228 138.361 27.5479 138.361 28.178C138.361 28.8781 138.629 29.4382 139.166 29.8582C139.726 30.255 140.485 30.4533 141.441 30.4533C142.351 30.4533 143.168 30.2433 143.892 29.8232C144.615 29.3798 145.14 28.7381 145.467 27.898L146.307 30.4183C145.91 31.6318 145.187 32.5536 144.137 33.1837C143.087 33.8138 141.733 34.1288 140.076 34.1288Z" fill="#DBDBDB"/>
<path d="M120.557 33.8488V15.0161H125.773V20.3369L125.038 18.7967C125.598 17.4665 126.496 16.463 127.733 15.7862C128.97 15.0861 130.475 14.7361 132.249 14.7361V19.7768C132.015 19.7535 131.805 19.7418 131.619 19.7418C131.432 19.7185 131.234 19.7068 131.024 19.7068C129.53 19.7068 128.317 20.1385 127.383 21.002C126.473 21.8421 126.018 23.1606 126.018 24.9575V33.8488H120.557Z" fill="#DBDBDB"/>
<path d="M107.82 34.1288C105.673 34.1288 103.783 33.7088 102.149 32.8687C100.539 32.0285 99.2907 30.8851 98.4039 29.4382C97.5171 27.968 97.0737 26.2994 97.0737 24.4325C97.0737 22.5422 97.5055 20.8736 98.3689 19.4268C99.2557 17.9565 100.458 16.813 101.974 15.9963C103.491 15.1561 105.207 14.7361 107.12 14.7361C108.964 14.7361 110.621 15.1328 112.091 15.9263C113.584 16.6964 114.763 17.8165 115.626 19.2867C116.49 20.7336 116.922 22.4722 116.922 24.5025C116.922 24.7125 116.91 24.9575 116.887 25.2376C116.863 25.4943 116.84 25.7393 116.817 25.9727H101.519V22.7872H113.946L111.846 23.7324C111.846 22.7522 111.647 21.9004 111.251 21.177C110.854 20.4536 110.306 19.8935 109.606 19.4968C108.905 19.0767 108.089 18.8667 107.155 18.8667C106.222 18.8667 105.393 19.0767 104.67 19.4968C103.97 19.8935 103.421 20.4652 103.025 21.212C102.628 21.9354 102.429 22.7989 102.429 23.8024V24.6425C102.429 25.6693 102.651 26.5794 103.095 27.3729C103.561 28.143 104.203 28.7381 105.02 29.1581C105.86 29.5549 106.84 29.7532 107.96 29.7532C108.964 29.7532 109.839 29.6015 110.586 29.2982C111.356 28.9948 112.056 28.5397 112.686 27.933L115.591 31.0834C114.728 32.0636 113.643 32.822 112.336 33.3587C111.029 33.8721 109.524 34.1288 107.82 34.1288Z" fill="#DBDBDB"/>
<path d="M83.1763 33.8488L75.2651 15.0161H80.9009L87.4819 31.2234H84.6815L91.5075 15.0161H96.7582L88.8121 33.8488H83.1763Z" fill="#DBDBDB"/>
<path d="M49.421 33.8487L60.3426 9.34521H65.9434L76.8999 33.8487H70.9491L61.9878 12.2156H64.2281L55.2318 33.8487H49.421ZM54.8818 28.598L56.387 24.2923H68.9888L70.529 28.598H54.8818Z" fill="#DBDBDB"/>
<g filter="url(#filter0_d_49_14)">
<path d="M34.0797 34.9966H43.7688L29.452 3.47073L23.8121 12.8706L34.0797 34.9966Z" fill="#DBDBDB"/>
<path d="M27.5721 0H19.7629L18.1722 3.47073L23.8121 12.8706L29.452 3.47073L28.512 1.73537L27.5721 0Z" fill="#418051"/>
<path d="M18.1722 3.47073L4 34.9966L11.5199 26.7536H17.3045L23.8121 12.8706L18.1722 3.47073Z" fill="#51AA4C"/>
<path d="M27.8613 34.9966L23.9567 26.7536H17.3045H11.5199L4 34.9966H27.8613Z" fill="url(#paint0_linear_49_14)"/>
</g>
<path d="M11.52 26.7537L3.92773 34.9967H27.9336L23.9908 26.7537H11.52Z" fill="url(#paint1_linear_49_14)"/>
<path d="M23.6675 12.5813L27.1382 19.812L34.9474 15.6182L28.8736 2.31372L23.6675 12.5813Z" fill="url(#paint2_linear_49_14)"/>
<path d="M23.9851 12.36L20.5741 19.6461L12.6041 15.9352L19.1845 1.30147L23.9851 12.36Z" fill="url(#paint3_linear_49_14)"/>
<defs>
<filter id="filter0_d_49_14" x="0" y="0" width="47.7688" height="42.9966" filterUnits="userSpaceOnUse" color-interpolation-filters="sRGB">
<feFlood flood-opacity="0" result="BackgroundImageFix"/>
<feColorMatrix in="SourceAlpha" type="matrix" values="0 0 0 0 0 0 0 0 0 0 0 0 0 0 0 0 0 0 127 0" result="hardAlpha"/>
<feOffset dy="4"/>
<feGaussianBlur stdDeviation="2"/>
<feComposite in2="hardAlpha" operator="out"/>
<feColorMatrix type="matrix" values="0 0 0 0 0 0 0 0 0 0 0 0 0 0 0 0 0 0 0.25 0"/>
<feBlend mode="normal" in2="BackgroundImageFix" result="effect1_dropShadow_49_14"/>
<feBlend mode="normal" in="SourceGraphic" in2="effect1_dropShadow_49_14" result="shape"/>
</filter>
<linearGradient id="paint0_linear_49_14" x1="23.8844" y1="0" x2="23.8844" y2="34.9966" gradientUnits="userSpaceOnUse">
<stop stop-color="#51AA4C"/>
<stop offset="1" stop-color="#6EB54B"/>
</linearGradient>
<linearGradient id="paint1_linear_49_14" x1="10.9415" y1="27.4767" x2="20.6306" y2="36.732" gradientUnits="userSpaceOnUse">
<stop offset="0.168269" stop-color="#51AA4C"/>
<stop offset="1" stop-color="#8AD566"/>
</linearGradient>
<linearGradient id="paint2_linear_49_14" x1="31.9105" y1="19.6674" x2="25.9813" y2="7.37521" gradientUnits="userSpaceOnUse">
<stop offset="0.206731" stop-color="#DBDBDB"/>
<stop offset="0.778846" stop-color="#418051"/>
</linearGradient>
<linearGradient id="paint3_linear_49_14" x1="15.8087" y1="19.7112" x2="20.8901" y2="7.46205" gradientUnits="userSpaceOnUse">
<stop offset="0.331731" stop-color="#51AA4C"/>
<stop offset="0.754808" stop-color="#418051"/>
</linearGradient>
</defs>
</svg>
